#N canvas 593 156 822 525 10;
#X obj 261 4 loadbang;
#X obj 261 27 bng 15 250 50 0 empty empty empty 0 -6 0 8 #fcfcfc #000000 #000000;
#X obj 261 76 unpack 0 0 0 0 0 0;
#X floatatom 261 256 5 0 0 0 - - - 0;
#X floatatom 261 167 5 0 0 0 - - - 0;
#X floatatom 324 167 5 0 0 0 - - - 0;
#X floatatom 324 256 5 0 0 0 - - - 0;
#X obj 388 191 * 0.01;
#X floatatom 389 256 5 0 0 0 - - - 0;
#X floatatom 452 256 5 0 0 0 - - - 0;
#X floatatom 516 256 5 0 0 0 - - - 0;
#X obj 579 191 mtof;
#X floatatom 580 256 5 0 0 0 - - - 0;
#X text 10 166 perry cook and gary scavone).;
#X text 10 158 ported from the STK (by;
#X text 13 237 by dan trueman \,;
#X text 12 246 computer music;
#X text 12 255 center \, columbia;
#X text 13 263 university;
#X text 8 20 physical model of a bowed;
#X floatatom 388 167 5 0 0 0 - - - 0;
#X floatatom 452 167 5 0 0 0 - - - 0;
#X floatatom 516 167 5 0 0 0 - - - 0;
#X floatatom 579 167 5 0 0 0 - - - 0;
#X text 267 138 bow;
#X text 266 150 pressure;
#X text 325 150 position;
#X text 388 150 velocity;
#X text 8 6 bowedbar~;
#X text 8 29 percussion bar;
#X text 8 51 bowed~ models the bowing;
#X text 9 61 of a percussion bar.;
#X text 9 71 you can control the pressure \,;
#X text 8 80 position \, and velocity of the;
#X text 9 90 bow \, as well as the frequency;
#X text 8 99 of the bar \, the overall gain \,;
#X text 9 108 and a wacky feedback factor;
#X text 10 118 that sounds kind of cool.;
#X text 9 127 maybe.;
#X text 10 176 the bower bas is;
#X text 10 184 mostly the result of work by;
#X text 10 195 the nutty Georg Essl.;
#X text 324 139 bow;
#X text 390 140 bow;
#X text 452 140 gain;
#X text 518 141 wacko bug;
#X text 517 152 factor;
#X text 579 140 bar;
#X text 579 153 frequency;
#X msg 261 46 126 177 90 96 0 78;
#X msg 378 46 117 97 17 83 127 60;
#X msg 500 46 110 96 9 83 127 39;
#X msg 618 46 78 96 92 117 107 45;
#X text 388 22 some of dan's faves.;
#X text 633 64 (adjust the pressure slider --;
#X text 636 77 leftmost -- for this one;
#X obj 264 113 hsl 90 8 0 127 0 0 empty empty empty -2 -6 0 8 #fcfcfc #000000 #000000 0 1;
#X obj 238 191 expr 10.-(9.*($i1/128.));
#X obj 324 216 / 200;
#X obj 452 214 expr (0.809 + (0.2*($i1/128.)));
#X obj 516 191 / 128;
#X obj 260 406 dac~;
#X obj 261 339 bowedbar~ _______________________________________________;
#X connect 0 0 1 0;
#X connect 1 0 49 0;
#X connect 2 0 56 0;
#X connect 2 1 5 0;
#X connect 2 2 20 0;
#X connect 2 3 21 0;
#X connect 2 4 22 0;
#X connect 2 5 23 0;
#X connect 3 0 62 0;
#X connect 4 0 57 0;
#X connect 5 0 58 0;
#X connect 6 0 62 1;
#X connect 7 0 8 0;
#X connect 8 0 62 2;
#X connect 9 0 62 3;
#X connect 10 0 62 4;
#X connect 11 0 12 0;
#X connect 12 0 62 5;
#X connect 20 0 7 0;
#X connect 21 0 59 0;
#X connect 22 0 60 0;
#X connect 23 0 11 0;
#X connect 49 0 2 0;
#X connect 50 0 2 0;
#X connect 51 0 2 0;
#X connect 52 0 2 0;
#X connect 56 0 4 0;
#X connect 57 0 3 0;
#X connect 58 0 6 0;
#X connect 59 0 9 0;
#X connect 60 0 10 0;
#X connect 62 0 61 0;
#X connect 62 0 61 1;
