#N canvas 464 176 688 555 10;
#X text 12 161 computer music;
#X text 12 170 center \, columbia;
#X text 13 178 university;
#X text 13 152 by luke dubois \,;
#X text 13 -3 escalator~;
#X text 13 11 signal rounder...;
#X text 14 37 escalator~ takes the incoming;
#X text 15 47 signal and rounds it to the;
#X text 15 57 nearest integer. an argument;
#X text 14 66 or and in in the right outlet;
#X text 15 76 determines the rounding;
#X text 15 85 algorithm (-1 always round;
#X text 15 93 down \, 0 = round normally (>=;
#X text 15 101 0.5 round up \, otherwise;
#X text 15 109 down) \, 1 always round up.;
#X floatatom 305 10 5 0 0 0 - - - 0;
#X obj 305 29 phasor~ 0.25;
#X obj 305 51 *~ 16;
#X obj 305 72 escalator~ -1;
#X text 400 73 <-- use to turn a ramp into a step sequencer...;
#X obj 305 94 snapshot~ 1;
#X obj 305 118 i;
#N canvas 0 0 450 300 (subpatch) 0;
#X array mycoll 16 float 1;
#A 0 42 50 56 44 48 46 52 54 58 44 46 40 42 60 54 48;
#X coords 0 64 15 36 100 70 1;
#X restore 509 231 graph;
#X obj 305 141 tabread mycoll;
#X obj 305 165 mtof;
#X msg 305 187 \$1 20;
#X obj 305 214 line~;
#X obj 304 283 *~ 5;
#X obj 305 308 escalator~ -1;
#X obj 306 333 *~ 0.2;
#X obj 304 246 osc~;
#X floatatom 369 170 5 0 0 0 - - - 0;
#X obj 243 55 tgl 15 0 empty empty empty 0 -6 0 8 #fcfcfc #000000 #000000 0 1;
#X obj 243 73 metro 20;
#X obj 243 15 loadbang;
#X msg 243 35 1;
#X text 161 223 play around...;
#X floatatom 162 244 5 0 0 0 - - - 0;
#X floatatom 163 333 5 0 0 0 - - - 0;
#X msg 207 241 0;
#X msg 234 241 -1;
#X msg 260 241 1;
#X obj 163 289 escalator~ -1;
#X obj 163 311 snapshot~ 1;
#X obj 162 264 sig~;
#X obj 306 380 dac~;
#X connect 15 0 16 0;
#X connect 16 0 17 0;
#X connect 17 0 18 0;
#X connect 18 0 20 0;
#X connect 20 0 21 0;
#X connect 21 0 23 0;
#X connect 23 0 24 0;
#X connect 23 0 31 0;
#X connect 24 0 25 0;
#X connect 25 0 26 0;
#X connect 26 0 30 0;
#X connect 27 0 28 0;
#X connect 28 0 29 0;
#X connect 29 0 45 0;
#X connect 29 0 45 1;
#X connect 30 0 27 0;
#X connect 32 0 33 0;
#X connect 33 0 20 0;
#X connect 33 0 43 0;
#X connect 34 0 35 0;
#X connect 35 0 32 0;
#X connect 37 0 44 0;
#X connect 39 0 42 0;
#X connect 40 0 42 0;
#X connect 41 0 42 0;
#X connect 42 0 43 0;
#X connect 43 0 38 0;
#X connect 44 0 42 0;
