#N canvas 126 96 454 304 10;
#X obj 309 130 dcblock~;
#X text 15 121 perry cook and gary scavone).;
#X text 15 113 ported from the STK (by;
#X text 13 152 by dan trueman \,;
#X text 12 161 computer music;
#X text 12 170 center \, columbia;
#X text 13 178 university;
#X text 13 -3 dcblock~;
#X text 13 11 removes dc signal offset;
#X text 14 37 dcblock~ filters out dc bias;
#X text 15 47 in an audio signal. you can use;
#X text 15 57 it for filter processes that;
#X text 14 66 often introduce dc offset (such;
#X text 15 76 as pitch-shifting.);
#X obj 310 81 adc~;
#X obj 308 176 dac~;
#X connect 0 0 15 0;
#X connect 0 0 15 1;
#X connect 14 0 0 0;
