#N canvas 693 189 834 537 10;
#X text 10 166 perry cook and gary scavone).;
#X text 10 158 ported from the STK (by;
#X text 13 237 by dan trueman \,;
#X text 12 246 computer music;
#X text 12 255 center \, columbia;
#X text 13 263 university;
#X text 8 51 marimba is a physical;
#X text 9 61 synthesis model of a struck;
#X obj 378 39 vsl 15 128 0 1 0 0 empty empty empty 0 -8 0 8 #fcfcfc #000000 #000000 0 1;
#X floatatom 378 225 5 0 0 0 - - - 0;
#X obj 433 39 vsl 15 128 0 1 0 0 empty empty empty 0 -8 0 8 #fcfcfc #000000 #000000 0 1;
#X floatatom 433 226 5 0 0 0 - - - 0;
#X obj 488 39 vsl 15 128 0 1 0 0 empty empty empty 0 -8 0 8 #fcfcfc #000000 #000000 0 1;
#X floatatom 488 228 5 0 0 0 - - - 0;
#X obj 544 39 vsl 15 128 0 10 0 0 empty empty empty 0 -8 0 8 #fcfcfc #000000 #000000 0 1;
#X floatatom 544 227 5 0 0 0 - - - 0;
#X obj 599 39 vsl 15 128 0 1 0 0 empty empty empty 0 -8 0 8 #fcfcfc #000000 #000000 0 1;
#X floatatom 599 227 5 0 0 0 - - - 0;
#X obj 655 39 vsl 15 128 0 127 0 0 empty empty empty 0 -8 0 8 #fcfcfc #000000 #000000 0 1;
#X floatatom 655 226 5 0 0 0 - - - 0;
#X msg 262 235 noteon;
#X msg 306 235 noteoff;
#X obj 378 -7 hdl 15 1 0 3 empty empty empty 0 -6 0 8 #fcfcfc #000000 #000000 0;
#X text 380 -27 try these presets;
#X obj 655 245 mtof;
#X floatatom 655 271 5 0 0 0 - - - 0;
#X text 381 192 stick;
#X text 381 203 hardness;
#X text 437 193 stick;
#X text 437 204 position;
#X text 493 195 amplitude;
#X text 553 193 vib;
#X text 553 204 freq;
#X text 605 194 vib;
#X text 605 205 gain;
#X text 658 193 frequency;
#N canvas 389 265 545 348 mypresets 0;
#X obj 2 2 inlet;
#X obj 2 137 outlet;
#X obj 40 137 outlet;
#X obj 78 137 outlet;
#X obj 116 137 outlet;
#X obj 154 137 outlet;
#X obj 192 137 outlet;
#X obj 2 21 sel 0 1 2;
#X obj 2 104 unpack 0 0 0 0 0 0;
#X msg 2 45 0.99 0.86 0.98 3 0.99 67;
#X msg 19 73 0.99 0.86 0.98 4.88 0.99 64;
#X connect 0 0 7 0;
#X connect 7 0 9 0;
#X connect 7 1 10 0;
#X connect 8 0 1 0;
#X connect 8 1 2 0;
#X connect 8 2 3 0;
#X connect 8 3 4 0;
#X connect 8 4 5 0;
#X connect 8 5 6 0;
#X connect 9 0 8 0;
#X connect 10 0 8 0;
#X restore 378 15 pd mypresets __________________________________;
#X text 8 6 vibraphone~;
#X text 8 20 vibraphone model;
#X text 9 71 vibraphone.;
#X obj 378 307 vibraphone~ ___________________________________;
#X obj 377 372 dac~;
#X connect 8 0 9 0;
#X connect 9 0 40 0;
#X connect 10 0 11 0;
#X connect 11 0 40 1;
#X connect 12 0 13 0;
#X connect 13 0 40 2;
#X connect 14 0 15 0;
#X connect 15 0 40 3;
#X connect 16 0 17 0;
#X connect 17 0 40 4;
#X connect 18 0 19 0;
#X connect 19 0 24 0;
#X connect 20 0 40 0;
#X connect 21 0 40 0;
#X connect 22 0 36 0;
#X connect 24 0 25 0;
#X connect 25 0 40 5;
#X connect 36 0 8 0;
#X connect 36 1 10 0;
#X connect 36 2 12 0;
#X connect 36 3 14 0;
#X connect 36 4 16 0;
#X connect 36 5 18 0;
#X connect 40 0 41 0;
#X connect 40 0 41 1;
